<mxfile host="65bd71144e">
    <diagram id="zOirYQnbSX0OWiR3QsNE" name="Page-1">
        <mxGraphModel dx="1903" dy="1404" grid="1" gridSize="10" guides="1" tooltips="1" connect="1" arrows="1" fold="1" page="1" pageScale="1" pageWidth="1169" pageHeight="827" math="0" shadow="0">
            <root>
                <mxCell id="0"/>
                <mxCell id="1" parent="0"/>
                <mxCell id="126" value="" style="rounded=0;whiteSpace=wrap;html=1;fontSize=15;fontColor=#000000;dashed=1;fillColor=none;" vertex="1" parent="1">
                    <mxGeometry x="-770" y="-200" width="430" height="100" as="geometry"/>
                </mxCell>
                <mxCell id="52" value="" style="rounded=0;whiteSpace=wrap;html=1;fontSize=20;strokeColor=#9673a6;strokeWidth=3;fillColor=#e1d5e7;" parent="1" vertex="1">
                    <mxGeometry x="-930" y="-580" width="520" height="246" as="geometry"/>
                </mxCell>
                <mxCell id="53" value="" style="rounded=0;whiteSpace=wrap;html=1;fontSize=20;strokeColor=#d6b656;strokeWidth=3;fillColor=#fff2cc;" parent="1" vertex="1">
                    <mxGeometry x="-930" y="-480" width="250" height="146" as="geometry"/>
                </mxCell>
                <mxCell id="54" value="" style="rounded=0;whiteSpace=wrap;html=1;fontSize=20;strokeColor=#82b366;strokeWidth=3;fillColor=#d5e8d4;" parent="1" vertex="1">
                    <mxGeometry x="-680" y="-480" width="270" height="146" as="geometry"/>
                </mxCell>
                <mxCell id="55" value="i2c" style="rounded=0;whiteSpace=wrap;html=1;fillColor=#f5f5f5;fontColor=#333333;strokeColor=#000000;strokeWidth=3;" parent="1" vertex="1">
                    <mxGeometry x="-740" y="-384" width="50" height="50" as="geometry"/>
                </mxCell>
                <mxCell id="56" style="edgeStyle=none;html=1;entryX=0.5;entryY=1;entryDx=0;entryDy=0;fontSize=20;fontColor=#000000;strokeColor=#000000;" parent="1" source="57" target="58" edge="1">
                    <mxGeometry relative="1" as="geometry"/>
                </mxCell>
                <mxCell id="57" value="AXI Stream Capture" style="rounded=0;whiteSpace=wrap;html=1;fillColor=#f5f5f5;fontColor=#333333;strokeColor=#000000;strokeWidth=3;" parent="1" vertex="1">
                    <mxGeometry x="-480" y="-384" width="50" height="50" as="geometry"/>
                </mxCell>
                <mxCell id="74" style="edgeStyle=none;html=1;strokeColor=#000000;entryX=0.002;entryY=0.437;entryDx=0;entryDy=0;entryPerimeter=0;" edge="1" parent="1" source="58" target="67">
                    <mxGeometry relative="1" as="geometry"/>
                </mxCell>
                <mxCell id="58" value="VDMA" style="rounded=0;whiteSpace=wrap;html=1;fillColor=#f5f5f5;fontColor=#333333;strokeColor=#000000;strokeWidth=3;" parent="1" vertex="1">
                    <mxGeometry x="-480" y="-459" width="50" height="50" as="geometry"/>
                </mxCell>
                <mxCell id="59" style="edgeStyle=orthogonalEdgeStyle;html=1;entryX=0.5;entryY=1;entryDx=0;entryDy=0;fontSize=20;fontColor=#000000;strokeColor=#000000;strokeWidth=3;" parent="1" source="60" target="57" edge="1">
                    <mxGeometry relative="1" as="geometry">
                        <Array as="points">
                            <mxPoint x="-715" y="-220"/>
                            <mxPoint x="-455" y="-220"/>
                        </Array>
                    </mxGeometry>
                </mxCell>
                <mxCell id="60" value="OV7670" style="rounded=0;whiteSpace=wrap;html=1;fillColor=#f5f5f5;fontColor=#333333;strokeColor=#000000;strokeWidth=3;" parent="1" vertex="1">
                    <mxGeometry x="-740" y="-300" width="50" height="50" as="geometry"/>
                </mxCell>
                <mxCell id="61" value="" style="edgeStyle=none;html=1;entryX=0.5;entryY=0;entryDx=0;entryDy=0;fontSize=20;fontColor=#000000;strokeColor=#000000;strokeWidth=3;" parent="1" source="55" target="60" edge="1">
                    <mxGeometry relative="1" as="geometry"/>
                </mxCell>
                <mxCell id="63" value="L298N" style="rounded=0;whiteSpace=wrap;html=1;fillColor=#f5f5f5;fontColor=#333333;strokeColor=#000000;strokeWidth=3;" parent="1" vertex="1">
                    <mxGeometry x="-660" y="-300" width="50" height="50" as="geometry"/>
                </mxCell>
                <mxCell id="64" value="HCSR04" style="rounded=0;whiteSpace=wrap;html=1;fillColor=#f5f5f5;fontColor=#333333;strokeColor=#000000;strokeWidth=3;" parent="1" vertex="1">
                    <mxGeometry x="-920" y="-300" width="50" height="50" as="geometry"/>
                </mxCell>
                <mxCell id="65" value="HCSR04" style="rounded=0;whiteSpace=wrap;html=1;fillColor=#f5f5f5;fontColor=#333333;strokeColor=#000000;strokeWidth=3;" parent="1" vertex="1">
                    <mxGeometry x="-860" y="-300" width="50" height="50" as="geometry"/>
                </mxCell>
                <mxCell id="86" style="edgeStyle=orthogonalEdgeStyle;html=1;entryX=0;entryY=0.5;entryDx=0;entryDy=0;strokeColor=#000000;" edge="1" parent="1" source="67" target="83">
                    <mxGeometry relative="1" as="geometry"/>
                </mxCell>
                <mxCell id="67" value="RAM" style="rounded=0;whiteSpace=wrap;html=1;fillColor=#f5f5f5;fontColor=#333333;strokeColor=#000000;strokeWidth=3;" parent="1" vertex="1">
                    <mxGeometry x="-410" y="-580" width="60" height="246" as="geometry"/>
                </mxCell>
                <mxCell id="68" value="HCSR04" style="rounded=0;whiteSpace=wrap;html=1;fillColor=#f5f5f5;fontColor=#333333;strokeColor=#000000;strokeWidth=3;" parent="1" vertex="1">
                    <mxGeometry x="-800" y="-300" width="50" height="50" as="geometry"/>
                </mxCell>
                <mxCell id="69" value="&lt;font style=&quot;font-size: 20px&quot;&gt;CPU&lt;/font&gt;" style="text;html=1;strokeColor=none;fillColor=none;align=center;verticalAlign=middle;whiteSpace=wrap;rounded=0;fontColor=#000000;" parent="1" vertex="1">
                    <mxGeometry x="-500" y="-580" width="90" height="30" as="geometry"/>
                </mxCell>
                <mxCell id="70" value="&lt;font style=&quot;font-size: 20px&quot;&gt;Perifericos&lt;/font&gt;" style="text;html=1;strokeColor=none;fillColor=none;align=center;verticalAlign=middle;whiteSpace=wrap;rounded=0;fontColor=#000000;" parent="1" vertex="1">
                    <mxGeometry x="-790" y="-477" width="110" height="30" as="geometry"/>
                </mxCell>
                <mxCell id="72" value="&lt;font style=&quot;font-size: 20px&quot;&gt;FPGA&lt;/font&gt;" style="text;html=1;strokeColor=none;fillColor=none;align=center;verticalAlign=middle;whiteSpace=wrap;rounded=0;fontColor=#000000;" parent="1" vertex="1">
                    <mxGeometry x="-670" y="-477" width="60" height="30" as="geometry"/>
                </mxCell>
                <mxCell id="78" style="edgeStyle=none;html=1;entryX=0.5;entryY=0;entryDx=0;entryDy=0;strokeColor=#000000;strokeWidth=3;" edge="1" parent="1" source="77" target="63">
                    <mxGeometry relative="1" as="geometry"/>
                </mxCell>
                <mxCell id="77" value="AXI GPIO" style="rounded=0;whiteSpace=wrap;html=1;fillColor=#f5f5f5;fontColor=#333333;strokeColor=#000000;strokeWidth=3;" vertex="1" parent="1">
                    <mxGeometry x="-660" y="-384" width="50" height="50" as="geometry"/>
                </mxCell>
                <mxCell id="80" style="edgeStyle=orthogonalEdgeStyle;html=1;entryX=1;entryY=0.75;entryDx=0;entryDy=0;strokeColor=#000000;strokeWidth=3;" edge="1" parent="1" source="79" target="63">
                    <mxGeometry relative="1" as="geometry">
                        <Array as="points">
                            <mxPoint x="-515" y="-262"/>
                            <mxPoint x="-590" y="-262"/>
                        </Array>
                    </mxGeometry>
                </mxCell>
                <mxCell id="79" value="AXI TIMER" style="rounded=0;whiteSpace=wrap;html=1;fillColor=#f5f5f5;fontColor=#333333;strokeColor=#000000;strokeWidth=3;" vertex="1" parent="1">
                    <mxGeometry x="-540" y="-384" width="50" height="50" as="geometry"/>
                </mxCell>
                <mxCell id="82" style="edgeStyle=orthogonalEdgeStyle;html=1;entryX=1;entryY=0.25;entryDx=0;entryDy=0;strokeColor=#000000;strokeWidth=3;" edge="1" parent="1" source="81" target="63">
                    <mxGeometry relative="1" as="geometry">
                        <Array as="points">
                            <mxPoint x="-575" y="-287"/>
                            <mxPoint x="-610" y="-287"/>
                        </Array>
                    </mxGeometry>
                </mxCell>
                <mxCell id="81" value="AXI TIMER" style="rounded=0;whiteSpace=wrap;html=1;fillColor=#f5f5f5;fontColor=#333333;strokeColor=#000000;strokeWidth=3;" vertex="1" parent="1">
                    <mxGeometry x="-600" y="-384" width="50" height="50" as="geometry"/>
                </mxCell>
                <mxCell id="83" value="pngServer" style="rounded=0;whiteSpace=wrap;html=1;fillColor=#f5f5f5;fontColor=#333333;strokeColor=#000000;strokeWidth=3;" vertex="1" parent="1">
                    <mxGeometry x="-330" y="-482" width="60" height="50" as="geometry"/>
                </mxCell>
                <mxCell id="94" style="edgeStyle=orthogonalEdgeStyle;html=1;strokeColor=#000000;strokeWidth=3;" edge="1" parent="1" source="91" target="68">
                    <mxGeometry relative="1" as="geometry"/>
                </mxCell>
                <mxCell id="91" value="MIO GPIO" style="rounded=0;whiteSpace=wrap;html=1;fillColor=#f5f5f5;fontColor=#333333;strokeColor=#000000;strokeWidth=3;" vertex="1" parent="1">
                    <mxGeometry x="-800" y="-384" width="50" height="50" as="geometry"/>
                </mxCell>
                <mxCell id="95" style="edgeStyle=orthogonalEdgeStyle;html=1;entryX=0.5;entryY=0;entryDx=0;entryDy=0;strokeColor=#000000;strokeWidth=3;" edge="1" parent="1" source="92" target="65">
                    <mxGeometry relative="1" as="geometry"/>
                </mxCell>
                <mxCell id="92" value="MIO GPIO" style="rounded=0;whiteSpace=wrap;html=1;fillColor=#f5f5f5;fontColor=#333333;strokeColor=#000000;strokeWidth=3;" vertex="1" parent="1">
                    <mxGeometry x="-860" y="-384" width="50" height="50" as="geometry"/>
                </mxCell>
                <mxCell id="96" style="edgeStyle=orthogonalEdgeStyle;html=1;entryX=0.5;entryY=0;entryDx=0;entryDy=0;strokeColor=#000000;strokeWidth=3;" edge="1" parent="1" source="93" target="64">
                    <mxGeometry relative="1" as="geometry"/>
                </mxCell>
                <mxCell id="93" value="MIO GPIO" style="rounded=0;whiteSpace=wrap;html=1;fillColor=#f5f5f5;fontColor=#333333;strokeColor=#000000;strokeWidth=3;" vertex="1" parent="1">
                    <mxGeometry x="-920" y="-384" width="50" height="50" as="geometry"/>
                </mxCell>
                <mxCell id="99" style="edgeStyle=orthogonalEdgeStyle;html=1;strokeColor=#000000;fontColor=#000000;" edge="1" parent="1" source="97" target="58">
                    <mxGeometry relative="1" as="geometry"/>
                </mxCell>
                <mxCell id="97" value="driver&lt;br&gt;vdma" style="rounded=0;whiteSpace=wrap;html=1;fillColor=#f5f5f5;fontColor=#333333;strokeColor=#000000;strokeWidth=3;" vertex="1" parent="1">
                    <mxGeometry x="-480" y="-540" width="50" height="60" as="geometry"/>
                </mxCell>
                <mxCell id="102" style="edgeStyle=orthogonalEdgeStyle;html=1;entryX=0.5;entryY=0;entryDx=0;entryDy=0;fontColor=#000000;strokeColor=#000000;" edge="1" parent="1" source="100" target="77">
                    <mxGeometry relative="1" as="geometry">
                        <Array as="points">
                            <mxPoint x="-635" y="-470"/>
                            <mxPoint x="-635" y="-470"/>
                        </Array>
                    </mxGeometry>
                </mxCell>
                <mxCell id="100" value="driver EMIO GPIO" style="rounded=0;whiteSpace=wrap;html=1;fillColor=#f5f5f5;fontColor=#333333;strokeColor=#000000;strokeWidth=3;" vertex="1" parent="1">
                    <mxGeometry x="-660" y="-540" width="50" height="60" as="geometry"/>
                </mxCell>
                <mxCell id="104" style="edgeStyle=orthogonalEdgeStyle;html=1;entryX=0.5;entryY=0;entryDx=0;entryDy=0;fontColor=#000000;strokeColor=#000000;" edge="1" parent="1" source="101" target="81">
                    <mxGeometry relative="1" as="geometry"/>
                </mxCell>
                <mxCell id="101" value="driver EMIO&lt;br&gt;GPIO&lt;br&gt;PWM" style="rounded=0;whiteSpace=wrap;html=1;fillColor=#f5f5f5;fontColor=#333333;strokeColor=#000000;strokeWidth=3;" vertex="1" parent="1">
                    <mxGeometry x="-600" y="-540" width="50" height="60" as="geometry"/>
                </mxCell>
                <mxCell id="105" style="edgeStyle=orthogonalEdgeStyle;html=1;entryX=0.5;entryY=0;entryDx=0;entryDy=0;fontColor=#000000;strokeColor=#000000;" edge="1" parent="1" source="103" target="79">
                    <mxGeometry relative="1" as="geometry"/>
                </mxCell>
                <mxCell id="103" value="driver EMIO&lt;br&gt;GPIO&lt;br&gt;PWM" style="rounded=0;whiteSpace=wrap;html=1;fillColor=#f5f5f5;fontColor=#333333;strokeColor=#000000;strokeWidth=3;" vertex="1" parent="1">
                    <mxGeometry x="-540" y="-540" width="50" height="60" as="geometry"/>
                </mxCell>
                <mxCell id="107" style="edgeStyle=orthogonalEdgeStyle;html=1;fontColor=#000000;strokeColor=#000000;" edge="1" parent="1" source="106" target="55">
                    <mxGeometry relative="1" as="geometry"/>
                </mxCell>
                <mxCell id="106" value="driver I2C" style="rounded=0;whiteSpace=wrap;html=1;fillColor=#f5f5f5;fontColor=#333333;strokeColor=#000000;strokeWidth=3;" vertex="1" parent="1">
                    <mxGeometry x="-740" y="-540" width="50" height="60" as="geometry"/>
                </mxCell>
                <mxCell id="109" style="edgeStyle=orthogonalEdgeStyle;html=1;entryX=0.5;entryY=0;entryDx=0;entryDy=0;fontColor=#000000;strokeColor=#000000;" edge="1" parent="1" source="108" target="92">
                    <mxGeometry relative="1" as="geometry"/>
                </mxCell>
                <mxCell id="110" style="edgeStyle=orthogonalEdgeStyle;html=1;entryX=0.5;entryY=0;entryDx=0;entryDy=0;fontColor=#000000;strokeColor=#000000;" edge="1" parent="1" source="108" target="93">
                    <mxGeometry relative="1" as="geometry">
                        <Array as="points">
                            <mxPoint x="-835" y="-400"/>
                            <mxPoint x="-895" y="-400"/>
                        </Array>
                    </mxGeometry>
                </mxCell>
                <mxCell id="111" style="edgeStyle=orthogonalEdgeStyle;html=1;fontColor=#000000;strokeColor=#000000;" edge="1" parent="1" source="108" target="91">
                    <mxGeometry relative="1" as="geometry">
                        <Array as="points">
                            <mxPoint x="-835" y="-400"/>
                            <mxPoint x="-775" y="-400"/>
                        </Array>
                    </mxGeometry>
                </mxCell>
                <mxCell id="108" value="driver MIO GPIO" style="rounded=0;whiteSpace=wrap;html=1;fillColor=#f5f5f5;fontColor=#333333;strokeColor=#000000;strokeWidth=3;" vertex="1" parent="1">
                    <mxGeometry x="-860" y="-540" width="50" height="60" as="geometry"/>
                </mxCell>
                <mxCell id="122" value="≈17v" style="edgeStyle=orthogonalEdgeStyle;html=1;entryX=0.5;entryY=1;entryDx=0;entryDy=0;fontColor=#000000;strokeColor=#000000;strokeWidth=3;labelBackgroundColor=default;fontSize=16;" edge="1" parent="1">
                    <mxGeometry x="0.1429" relative="1" as="geometry">
                        <mxPoint x="-635" y="-180" as="sourcePoint"/>
                        <mxPoint x="-635" y="-250" as="targetPoint"/>
                        <Array as="points">
                            <mxPoint x="-635" y="-180"/>
                            <mxPoint x="-635" y="-180"/>
                        </Array>
                        <mxPoint as="offset"/>
                    </mxGeometry>
                </mxCell>
                <mxCell id="130" style="edgeStyle=orthogonalEdgeStyle;html=0;fontSize=15;fontColor=#000000;strokeColor=#000000;strokeWidth=3;entryX=0.5;entryY=1;entryDx=0;entryDy=0;" edge="1" parent="1" source="115" target="129">
                    <mxGeometry relative="1" as="geometry">
                        <Array as="points">
                            <mxPoint x="-635" y="-110"/>
                            <mxPoint x="-400" y="-110"/>
                        </Array>
                    </mxGeometry>
                </mxCell>
                <mxCell id="132" style="edgeStyle=orthogonalEdgeStyle;html=0;entryX=0.5;entryY=1;entryDx=0;entryDy=0;fontSize=15;fontColor=#000000;strokeColor=#000000;strokeWidth=3;" edge="1" parent="1" source="115" target="131">
                    <mxGeometry relative="1" as="geometry">
                        <Array as="points">
                            <mxPoint x="-635" y="-110"/>
                            <mxPoint x="-480" y="-110"/>
                        </Array>
                    </mxGeometry>
                </mxCell>
                <mxCell id="133" value="" style="edgeStyle=orthogonalEdgeStyle;html=0;fontSize=14;fontColor=#000000;strokeColor=#000000;strokeWidth=3;" edge="1" parent="1" source="115" target="117">
                    <mxGeometry relative="1" as="geometry"/>
                </mxCell>
                <mxCell id="115" value="4x18650" style="rounded=0;whiteSpace=wrap;html=1;fillColor=#f5f5f5;fontColor=#333333;strokeColor=#000000;strokeWidth=3;" vertex="1" parent="1">
                    <mxGeometry x="-660" y="-180" width="50" height="50" as="geometry"/>
                </mxCell>
                <mxCell id="121" value="5v" style="edgeStyle=orthogonalEdgeStyle;html=0;entryX=0;entryY=0.25;entryDx=0;entryDy=0;fontColor=#000000;strokeColor=#000000;fontSize=16;strokeWidth=3;exitX=0;exitY=0.5;exitDx=0;exitDy=0;" edge="1" parent="1" source="117" target="52">
                    <mxGeometry x="-0.7664" relative="1" as="geometry">
                        <Array as="points">
                            <mxPoint x="-960" y="-155"/>
                            <mxPoint x="-960" y="-518"/>
                            <mxPoint x="-930" y="-518"/>
                        </Array>
                        <mxPoint as="offset"/>
                    </mxGeometry>
                </mxCell>
                <mxCell id="117" value="mini360" style="rounded=0;whiteSpace=wrap;html=1;fillColor=#f5f5f5;fontColor=#333333;strokeColor=#000000;strokeWidth=3;" vertex="1" parent="1">
                    <mxGeometry x="-740" y="-180" width="50" height="50" as="geometry"/>
                </mxCell>
                <mxCell id="127" value="&lt;font style=&quot;font-size: 20px&quot;&gt;Alimentacion&lt;/font&gt;" style="text;html=1;strokeColor=none;fillColor=none;align=center;verticalAlign=middle;whiteSpace=wrap;rounded=0;fontColor=#000000;" vertex="1" parent="1">
                    <mxGeometry x="-470" y="-230" width="140" height="30" as="geometry"/>
                </mxCell>
                <mxCell id="129" value="bms" style="rounded=0;whiteSpace=wrap;html=1;fillColor=#f5f5f5;fontColor=#333333;strokeColor=#000000;strokeWidth=3;" vertex="1" parent="1">
                    <mxGeometry x="-430" y="-190" width="60" height="50" as="geometry"/>
                </mxCell>
                <mxCell id="131" value="indicador de carga" style="rounded=0;whiteSpace=wrap;html=1;fillColor=#f5f5f5;fontColor=#333333;strokeColor=#000000;strokeWidth=3;" vertex="1" parent="1">
                    <mxGeometry x="-510" y="-190" width="60" height="50" as="geometry"/>
                </mxCell>
            </root>
        </mxGraphModel>
    </diagram>
</mxfile>